<svg width="34.93" height="35" viewBox="0 0 96 95" fill="none" xmlns="http://www.w3.org/2000/svg">
<g filter="url(#filter0_d_308_78)">
<ellipse rx="17.5" ry="17.4636" transform="matrix(0 -1 -1 0 47.6528 47.5)" fill="white"/>
</g>
<g clip-path="url(#clip0_308_78)">
<path d="M43.7328 47.5001C43.7328 47.7003 43.8091 47.9005 43.9613 48.0531L48.7543 52.8561C49.0592 53.1616 49.5536 53.1616 49.8583 52.8561C50.1631 52.5507 50.1631 52.0554 49.8583 51.7498L45.6172 47.5001L49.8582 43.2504C50.163 42.9449 50.163 42.4497 49.8582 42.1443C49.5534 41.8386 49.0591 41.8386 48.7542 42.1443L43.9612 46.9471C43.8089 47.0998 43.7328 47.3 43.7328 47.5001Z" fill="#4D4D4D"/>
</g>
<defs>
<filter id="filter0_d_308_78" x="0.189209" y="0" width="34.93" height="35" filterUnits="userSpaceOnUse" color-interpolation-filters="sRGB">
<feFlood flood-opacity="0" result="BackgroundImageFix"/>
<feColorMatrix in="SourceAlpha" type="matrix" values="0 0 0 0 0 0 0 0 0 0 0 0 0 0 0 0 0 0 127 0" result="hardAlpha"/>
<feOffset/>
<feGaussianBlur stdDeviation="15"/>
<feComposite in2="hardAlpha" operator="out"/>
<feColorMatrix type="matrix" values="0 0 0 0 0 0 0 0 0 0 0 0 0 0 0 0 0 0 0.1 0"/>
<feBlend mode="normal" in2="BackgroundImageFix" result="effect1_dropShadow_308_78"/>
<feBlend mode="normal" in="SourceGraphic" in2="effect1_dropShadow_308_78" result="shape"/>
</filter>
<clipPath id="clip0_308_78">
<rect width="11.1702" height="11.147" fill="white" transform="matrix(0 -1 -1 0 52.4834 53.0852)"/>
</clipPath>
</defs>
</svg>
