<svg width="34.93" height="35" viewBox="0 0 95 95" fill="none" xmlns="http://www.w3.org/2000/svg">
<g filter="url(#filter0_d_308_86)">
<ellipse cx="47.4636" cy="47.5" rx="17.5" ry="17.4636" transform="rotate(-90 47.4636 47.5)" fill="white"/>
</g>
<g clip-path="url(#clip0_308_86)">
<path d="M51.3836 47.5001C51.3836 47.7003 51.3074 47.9005 51.1551 48.0531L46.3621 52.8561C46.0572 53.1616 45.5629 53.1616 45.2581 52.8561C44.9533 52.5507 44.9533 52.0554 45.2581 51.7498L49.4992 47.5001L45.2583 43.2504C44.9535 42.9449 44.9535 42.4497 45.2583 42.1443C45.563 41.8386 46.0574 41.8386 46.3623 42.1443L51.1553 46.9471C51.3075 47.0998 51.3836 47.3 51.3836 47.5001Z" fill="#4D4D4D"/>
</g>
<defs>
<filter id="filter0_d_308_86" x="0" y="0" width="34.93" height="35" filterUnits="userSpaceOnUse" color-interpolation-filters="sRGB">
<feFlood flood-opacity="0" result="BackgroundImageFix"/>
<feColorMatrix in="SourceAlpha" type="matrix" values="0 0 0 0 0 0 0 0 0 0 0 0 0 0 0 0 0 0 127 0" result="hardAlpha"/>
<feOffset/>
<feGaussianBlur stdDeviation="15"/>
<feComposite in2="hardAlpha" operator="out"/>
<feColorMatrix type="matrix" values="0 0 0 0 0 0 0 0 0 0 0 0 0 0 0 0 0 0 0.1 0"/>
<feBlend mode="normal" in2="BackgroundImageFix" result="effect1_dropShadow_308_86"/>
<feBlend mode="normal" in="SourceGraphic" in2="effect1_dropShadow_308_86" result="shape"/>
</filter>
<clipPath id="clip0_308_86">
<rect width="11.1702" height="11.147" fill="white" transform="translate(42.6331 53.0852) rotate(-90)"/>
</clipPath>
</defs>
</svg>
