<svg viewBox="0 0 23 23" fill="none" xmlns="http://www.w3.org/2000/svg">
<g clip-path="url(#clip0_314_132)">
<path d="M22.848 11.1315L17.6208 5.90428C17.4331 5.68502 17.1031 5.65946 16.8838 5.84728C16.6646 6.03505 16.639 6.36504 16.8268 6.5843C16.8443 6.60473 16.8634 6.62383 16.8838 6.6413L21.2171 10.9799H0.522702C0.234039 10.9799 0 11.2139 0 11.5026C0 11.7913 0.234039 12.0253 0.522702 12.0253H21.2171L16.8838 16.3586C16.6646 16.5464 16.639 16.8764 16.8268 17.0957C17.0146 17.3149 17.3446 17.3405 17.5638 17.1527C17.5843 17.1351 17.6034 17.1161 17.6208 17.0957L22.848 11.8685C23.0507 11.6646 23.0507 11.3354 22.848 11.1315Z" fill="#4D4D4D"/>
</g>
<defs>
<clipPath id="clip0_314_132">
<rect width="23" height="23" fill="white"/>
</clipPath>
</defs>
</svg>
