<svg width="18" height="18" viewBox="0 0 18 18" fill="none" xmlns="http://www.w3.org/2000/svg">
<path d="M8.99992 0C5.33347 0 2.35071 2.98279 2.35071 6.64928C2.35071 7.85632 2.89203 9.1545 2.91472 9.20926C3.08955 9.62425 3.43453 10.2688 3.68329 10.6467L8.2423 17.5545C8.42887 17.8377 8.70501 18 8.99992 18C9.29483 18 9.57097 17.8377 9.75754 17.5549L14.3169 10.6467C14.5661 10.2688 14.9107 9.62425 15.0855 9.20926C15.1082 9.15489 15.6491 7.85671 15.6491 6.64928C15.6491 2.98279 12.6664 0 8.99992 0ZM14.3643 8.90574C14.2082 9.27771 13.8871 9.87731 13.6638 10.216L9.10435 17.1242C9.01439 17.2608 8.98584 17.2608 8.89588 17.1242L4.33648 10.216C4.11314 9.87731 3.79202 9.27731 3.63596 8.90535C3.62931 8.88931 3.13297 7.69439 3.13297 6.64928C3.13297 3.41421 5.76488 0.782269 8.99992 0.782269C12.235 0.782269 14.8669 3.41421 14.8669 6.64928C14.8669 7.69596 14.3694 8.894 14.3643 8.90574Z" fill="#76757A"/>
<path d="M8.99998 3.12946C7.05876 3.12946 5.47974 4.70882 5.47974 6.6496C5.47974 8.59037 7.05876 10.1697 8.99998 10.1697C10.9412 10.1697 12.5202 8.59037 12.5202 6.6496C12.5202 4.70882 10.9412 3.12946 8.99998 3.12946ZM8.99998 9.38748C7.49058 9.38748 6.26201 8.15934 6.26201 6.6496C6.26201 5.13985 7.49058 3.91171 8.99998 3.91171C10.5094 3.91171 11.7379 5.13985 11.7379 6.6496C11.7379 8.15934 10.5094 9.38748 8.99998 9.38748Z" fill="#76757A"/>
</svg>
