<svg width="21" height="21" viewBox="0 0 21 21" fill="none" xmlns="http://www.w3.org/2000/svg">
<path d="M0.656233 6.5625H20.3437C20.706 6.5625 20.9999 6.26847 20.9999 5.90626C20.9999 5.544 20.7059 5.25003 20.3437 5.25003H0.656233C0.293968 5.25003 0 5.54405 0 5.90626C0 6.26847 0.294023 6.5625 0.656233 6.5625Z" fill="#4D4D4D"/>
<path d="M20.3437 9.84378H0.656233C0.293968 9.84378 0 10.1378 0 10.5C0 10.8622 0.294023 11.1562 0.656233 11.1562H20.3437C20.706 11.1562 20.9999 10.8622 20.9999 10.5C20.9999 10.1378 20.706 9.84378 20.3437 9.84378Z" fill="#4D4D4D"/>
<path d="M20.3437 14.4375H7.21875C6.85648 14.4375 6.56252 14.7316 6.56252 15.0938C6.56252 15.456 6.85654 15.75 7.21875 15.75H20.3437C20.706 15.75 21 15.456 21 15.0938C21 14.7315 20.706 14.4375 20.3437 14.4375Z" fill="#4D4D4D"/>
</svg>
