<svg width="87" height="87" viewBox="0 0 87 87" fill="none" xmlns="http://www.w3.org/2000/svg">
<circle cx="43.5" cy="43.5" r="43.5" fill="white" fill-opacity="0.8"/>
<g clip-path="url(#clip0_305_62)">
<path d="M44.0287 59.7819L51.5286 52.2821C51.8432 52.0127 51.8799 51.5392 51.6104 51.2246C51.341 50.91 50.8675 50.8733 50.5529 51.1428C50.5236 51.168 50.4962 51.1953 50.4711 51.2246L44.2462 57.442V27.75C44.2462 27.3358 43.9104 27 43.4962 27C43.082 27 42.7462 27.3358 42.7462 27.75V57.442L36.5289 51.2246C36.2595 50.91 35.786 50.8733 35.4714 51.1428C35.1568 51.4123 35.1202 51.8857 35.3896 52.2003C35.4148 52.2296 35.4421 52.257 35.4714 52.2821L42.9713 59.782C43.2637 60.0727 43.7362 60.0727 44.0287 59.7819Z" fill="#838383"/>
</g>
<defs>
<clipPath id="clip0_305_62">
<rect width="33" height="33" fill="white" transform="translate(60 27) rotate(90)"/>
</clipPath>
</defs>
</svg>
