<svg width="33" height="33" viewBox="0 0 33 33" fill="none" xmlns="http://www.w3.org/2000/svg">
<path d="M28.1183 27.1462L22.7471 21.7749C24.3956 19.895 25.3052 17.5164 25.3052 14.9927C25.3052 12.238 24.2324 9.6485 22.2847 7.70081C20.337 5.75311 17.7474 4.68024 14.9927 4.68024C12.238 4.68024 9.6485 5.75311 7.70081 7.70081C5.75311 9.6485 4.68024 12.238 4.68024 14.9927C4.68024 17.7474 5.75311 20.337 7.70081 22.2847C9.6485 24.2324 12.238 25.3052 14.9927 25.3052C17.5164 25.3052 19.895 24.3956 21.7749 22.7471L27.1462 28.1183C27.2805 28.2526 27.4564 28.3198 27.6323 28.3198C27.8082 28.3198 27.9841 28.2526 28.1183 28.1183C28.3869 27.8498 28.3869 27.4147 28.1183 27.1462V27.1462ZM8.67297 21.3125C6.98511 19.6243 6.05524 17.3799 6.05524 14.9927C6.05524 12.6056 6.98511 10.3612 8.67297 8.67297C10.3612 6.98511 12.6056 6.05524 14.9927 6.05524C17.3799 6.05524 19.6243 6.98511 21.3125 8.67297C23.0004 10.3612 23.9302 12.6056 23.9302 14.9927C23.9302 17.3799 23.0004 19.6243 21.3125 21.3125C19.6243 23.0004 17.3799 23.9302 14.9927 23.9302C12.6056 23.9302 10.3612 23.0004 8.67297 21.3125V21.3125Z" fill="#757575"/>
</svg>
