<svg width="90" height="16" viewBox="0 0 90 16" fill="none" xmlns="http://www.w3.org/2000/svg">
<path d="M7.80992 0L9.56335 5.39652H15.2376L10.647 8.73175L12.4005 14.1283L7.80992 10.793L3.21936 14.1283L4.9728 8.73175L0.382245 5.39652H6.05648L7.80992 0Z" fill="#E1A815"/>
<path d="M26.4051 0L28.1586 5.39652H33.8328L29.2423 8.73175L30.9957 14.1283L26.4051 10.793L21.8146 14.1283L23.568 8.73175L18.9775 5.39652H24.6517L26.4051 0Z" fill="#E1A815"/>
<path d="M44.9999 0L46.7533 5.39652H52.4275L47.837 8.73175L49.5904 14.1283L44.9999 10.793L40.4093 14.1283L42.1627 8.73175L37.5722 5.39652H43.2464L44.9999 0Z" fill="#E1A815"/>
<path d="M63.5951 0L65.3485 5.39652H71.0227L66.4322 8.73175L68.1856 14.1283L63.5951 10.793L59.0045 14.1283L60.758 8.73175L56.1674 5.39652H61.8416L63.5951 0Z" fill="#E1A815"/>
<path d="M82.1903 0L83.9437 5.39652H89.618L85.0274 8.73175L86.7808 14.1283L82.1903 10.793L77.5997 14.1283L79.3532 8.73175L74.7626 5.39652H80.4369L82.1903 0Z" fill="#E1A815"/>
</svg>
