<svg width="36" height="36" viewBox="0 0 36 36" fill="none" xmlns="http://www.w3.org/2000/svg">
<path d="M24.0642 13.9631C24.0278 13.9631 20.9964 15.9084 14.9698 19.7989L16.243 24.0331L16.5158 21.3452C21.7057 16.6079 24.3037 14.2239 24.3097 14.1932C24.3145 14.172 24.3176 14.1505 24.3188 14.1288C24.3188 14.0183 24.234 13.9631 24.0642 13.9631V13.9631Z" fill="#4B8693"/>
<path d="M22.0967 4.83664H14.847C8.96923 4.83664 4.19561 9.55953 4.19561 15.3749V22.5476C4.19561 28.363 8.96923 33.0859 14.847 33.0859H22.0967C27.9745 33.0859 32.7481 28.363 32.7481 22.5476V15.3749C32.7481 9.55956 27.9745 4.83664 22.0967 4.83664V4.83664ZM27.5564 11.9565L24.6826 25.9108C24.5735 26.3895 24.2825 26.6288 23.8096 26.6288C23.6237 26.6274 23.444 26.5624 23.3002 26.4447L19.0623 23.3335L16.716 25.5611C16.6054 25.674 16.4555 25.7399 16.2976 25.7451C15.9702 25.7451 15.752 25.5979 15.6428 25.3033L13.9694 20.2039L9.8224 18.8968C9.56777 18.8109 9.42225 18.6268 9.38585 18.3445C9.38585 18.05 9.52531 17.8475 9.80421 17.737C21.1662 13.4414 26.8835 11.2937 26.9563 11.2937C27.1107 11.3026 27.2564 11.3682 27.3655 11.4778C27.4335 11.5363 27.4863 11.6104 27.5196 11.6938C27.5528 11.7771 27.5655 11.8672 27.5565 11.9565L27.5564 11.9565Z" fill="#4B8693"/>
</svg>
