<svg width="36" height="36" viewBox="0 0 36 36" fill="none" xmlns="http://www.w3.org/2000/svg">
<path d="M18.9788 11.1082C14.8478 11.1082 11.4457 14.4248 11.4457 18.5255C11.4455 20.093 11.9575 21.6177 12.9038 22.8673L11.9925 25.6413L14.9085 24.7368C16.1387 25.5323 17.5744 25.9515 19.0395 25.9429C23.1705 25.9429 26.5725 22.6262 26.5725 18.5255C26.5117 14.4248 23.1098 11.1082 18.9788 11.1082V11.1082ZM23.3467 21.6176C23.0993 22.2723 22.1095 22.726 21.4224 22.7203C18.5991 22.6971 14.5531 18.8448 14.6001 16.546C14.6034 16.2311 14.6695 15.9201 14.7944 15.6311C14.9194 15.3421 15.1007 15.0809 15.3278 14.8628C15.7212 14.4818 16.6501 14.3286 16.9071 14.9238C17.537 16.5907 17.6991 16.6241 17.5754 16.9139C17.4549 17.1961 17.2672 17.4446 17.0287 17.6375C16.3865 18.1029 18.192 19.6365 18.4593 19.8373C20.1287 21.0917 20.3692 20.5936 20.4702 20.4858C21.0665 19.8499 21.0054 19.6227 21.2601 19.57C21.5243 19.5153 23.3169 20.4899 23.3239 20.4944C23.6768 20.7172 23.4556 21.293 23.3467 21.6176Z" fill="#6E8456"/>
<path d="M22.4213 4.67191H15.1717C9.29388 4.67191 4.52026 9.3948 4.52026 15.2102V22.3829C4.52026 28.1982 9.29388 32.9211 15.1717 32.9211H22.4213C28.2991 32.9211 33.0728 28.1982 33.0728 22.3829V15.2102C33.0728 9.39483 28.2991 4.67191 22.4213 4.67191V4.67191ZM18.9788 27.3298C17.4745 27.3214 15.9946 26.9489 14.6655 26.2443L9.68402 27.8122L11.3242 23.1086C10.5015 21.7425 10.0609 20.1805 10.0485 18.5858C10.0485 13.7012 14.058 9.78152 18.9788 9.78152C23.8995 9.72116 27.909 13.6409 27.909 18.5255C27.909 23.4101 23.8995 27.3298 18.9788 27.3298V27.3298Z" fill="#6E8456"/>
</svg>
